<?xml version="1.0" encoding="utf-8"?>
<!-- Generator: Adobe Illustrator 14.0.0, SVG Export Plug-In . SVG Version: 6.00 Build 43363)  -->
<!DOCTYPE svg PUBLIC "-//W3C//DTD SVG 1.1//EN" "http://www.w3.org/Graphics/SVG/1.1/DTD/svg11.dtd">
<svg version="1.1" id="Layer_1" xmlns="http://www.w3.org/2000/svg" xmlns:xlink="http://www.w3.org/1999/xlink" x="0px" y="0px"
	 width="210px" height="106px" viewBox="0 0 210 106" enable-background="new 0 0 210 106" xml:space="preserve">
<g>
	<path fill="#FFFFFF" d="M77.1,37.94c0.165,1.927-0.115,5.483,0,8.16c-1.441-0.719-2.842-1.479-4.56-1.92
		C74.243,42.283,76.014,40.454,77.1,37.94z"/>
	<path d="M177.42,6.5c0.08,0,0.16,0,0.24,0c2.775,2.263,4.871,5.209,4.8,10.32c-8.649,3.589-17.998,9.78-30.96,6.72
		c-8.07,3.289-16.113,6.606-24.48,9.6c-0.633,2.167-3.123,2.477-3.358,5.04c-4.302,0.458-3.347,5.771-7.2,6.24
		c-3.102,0.377-5.874-3.39-9.12-3.36c-1.864,0.017-4.485,1.813-6,2.4c-2.051,0.794-3.833,1.414-6,2.4
		c-0.014,2.389-1.131,7.014-0.24,10.56c0.382,1.521,1.675,4.534,2.88,4.801c1.764,0.389,5.122-1.91,6.96-2.881
		c2.303-1.216,4.534-2.764,6.959-2.4c4.764,0.715,4.729,6.719,7.92,7.92c1.551,0.584,6.35,0.539,8.4,0
		c1.459-0.383,2.709-1.483,4.079-1.92c11.502-3.649,25.708,1.246,39.36,0.722c-6.564,2.396-9.858,8.062-11.76,15.118
		c-32.793,8.391-80.047,7.428-107.042-4.559c-4.211-1.871-7.96-4.021-11.76-6c25.596,19.371,81.976,22.104,120.718,12.719
		c1.635-7.953,5.687-16.703,14.16-17.76c9.303-1.16,25.974-0.087,26.881,6.961c0.795,6.174-6.928,10.627-11.762,12.959
		c-6.229,3.006-12.322,4.426-18.959,5.76c-28.459,5.726-63.197,4.145-90.241-1.438c-13.016-2.688-27.512-6.479-36.96-12.72
		c-1.694-1.119-3.254-3.066-4.56-3.842c-3.993,10.168-16.85,11.472-26.4,16.08c-3.874-2.285-5.816-6.502-6.24-12.238
		c10.096-3.104,16.552-9.85,30-9.602c-0.801-10.354,12.724-6.773,19.44-5.52c-10.856,4.744-21.746,9.455-32.64,14.16
		c-0.252,0.013-0.189,0.308,0.24,0.24c12.892-5.434,26.36-11.123,39.12-16.32c4.422-1.801,9.088-3.074,12.96-5.76
		c-3.717-0.954-12.574,0.65-13.92-2.4c-1.022-2.315,1.38-5.74,2.88-7.68c1.725-2.229,3.984-4.553,5.04-6.24
		c1.61-2.571,2.395-5.377,5.04-6.96c3.096-1.853,7.526-1.58,10.08-3.36c-0.102-1.127-1.373-0.553-1.44-1.2
		c0.653-1.879-0.939-2.873-1.2-4.56c1.168-1.981-0.25-3.64,0.72-5.76c0.489-1.07,1.378-1.216,2.64-1.92
		c3.215-1.792,3.735-1.258,7.2,0c3.885,1.411,5.718,3.631,6,7.2c-0.389-2.215-1.011,0.512-1.2-0.96
		c-0.754-0.106-0.735,1.378-0.96,1.92c-1.006,2.426-2.397,4.813-2.64,7.44c7.471,2.289,12.645,6.875,18.72,10.56
		c1.225-0.775,2.733-1.265,4.32-1.68c-0.854-4.374,2.75-4.29,5.038-5.52c1.568,0.156,2.759,1.823,3.601,1.92
		c14.901-5.819,29.942-11.498,43.681-18.48c-6.647,2.473-13.136,5.105-19.44,7.92C156.854,13.295,167.889,10.648,177.42,6.5z
		 M105.18,39.86c-2.155-0.498-3.228-3.394-5.28-3.12c-2.41,0.321-2.142,4.584-3.6,6.72c-2.918,0.842-5.599,1.921-8.16,3.12
		c6.729-1.914,14.124-5.234,20.879-7.92C107.663,38.982,106.538,39.538,105.18,39.86z M61.74,59.3
		c3.012,0.188,5.774,0.626,8.88,0.72c-0.641-4.08,2.9-4.713,6.24-4.08c0-0.879,0-1.76,0-2.64
		C71.612,55.092,66.495,57.016,61.74,59.3z M120.54,68.42c1.287-0.443,4.403-1.326,3.84-1.92c-11.851,6.105-30.466,1.037-44.4,0.96
		C90.588,71.521,109.355,72.27,120.54,68.42z"/>
</g>
</svg>
